<?xml version="1.0" standalone="no"?>
<!DOCTYPE svg PUBLIC "-//W3C//DTD SVG 20010904//EN"
 "http://www.w3.org/TR/2001/REC-SVG-20010904/DTD/svg10.dtd">
<svg version="1.0" xmlns="http://www.w3.org/2000/svg"
 width="239.000000pt" height="658.000000pt" viewBox="0 0 239.000000 658.000000"
 preserveAspectRatio="xMidYMid meet" style="background-color: white;">
<metadata>
Created by potrace 1.13, written by Peter Selinger 2001-2015
</metadata>
<g transform="translate(0.000000,658.000000) scale(0.100000,-0.100000)"
fill="#000000" stroke="none">
<path d="M1102 6463 c-1 -77 2 -123 8 -123 6 0 9 -19 9 -42 -1 -40 -2 -41 -9
-13 -6 23 -8 14 -8 -35 1 -56 2 -60 9 -30 8 33 4 -115 -5 -200 -2 -19 -1 -26
1 -15 3 10 11 24 19 30 7 5 18 42 24 80 5 39 14 95 19 125 5 30 7 77 5 104 -2
27 6 85 16 130 27 109 27 106 -25 106 l-45 0 -2 -87 -2 -88 -6 90 -6 90 -2
-122z"/>
<path d="M1616 6563 c-3 -10 -7 -31 -10 -48 -34 -208 -34 -205 3 -205 15 0 42
5 58 10 29 11 30 13 36 88 4 42 9 98 13 125 l7 47 -51 0 c-40 0 -52 -4 -56
-17z"/>
<path d="M1760 6454 l0 -125 52 3 53 3 7 50 c9 56 27 151 34 178 5 15 -3 17
-70 17 l-76 0 0 -126z"/>
<path d="M1950 6523 c0 -32 -3 -89 -7 -126 l-6 -68 69 3 69 3 3 123 3 122 -66
0 -65 0 0 -57z"/>
<path d="M2211 6556 c-12 -29 -36 -39 -63 -25 -11 6 -21 9 -23 7 -3 -2 -5 -48
-6 -102 -3 -114 2 -121 83 -114 36 4 57 13 78 33 31 30 66 116 73 183 l5 42
-69 0 c-64 0 -70 -2 -78 -24z"/>
<path d="M1730 6267 c-14 -7 -26 -21 -27 -32 -2 -11 0 -14 3 -7 3 6 10 12 15
12 6 0 5 -8 -1 -20 -6 -11 -9 -24 -6 -29 3 -4 -1 -8 -9 -8 -8 0 -15 4 -15 8 0
4 -13 1 -30 -7 -16 -9 -30 -22 -30 -30 0 -7 -19 -26 -42 -40 -24 -14 -67 -49
-95 -77 -29 -28 -53 -47 -53 -42 -1 6 -7 -3 -15 -20 -11 -23 -13 -24 -7 -5 8
27 6 160 -3 198 -4 17 -12 22 -40 22 -18 0 -45 4 -59 10 -27 10 -59 4 -51 -10
5 -8 -14 -72 -24 -80 -32 -26 -40 -120 -13 -165 10 -16 16 -37 14 -47 -3 -16
-46 -33 -62 -23 -14 8 -31 -124 -32 -244 -1 -64 -5 -106 -10 -99 -4 7 -22 55
-38 106 -51 158 -155 343 -208 370 -21 12 -178 16 -194 6 -7 -4 -22 -9 -35
-10 -31 -3 -72 -35 -73 -56 0 -9 -8 -19 -18 -22 -10 -3 -36 -25 -59 -49 -65
-67 -103 -187 -109 -347 -12 -284 -14 -317 -23 -350 -5 -19 -9 -26 -10 -16 -1
19 -1 19 -14 1 -13 -17 -14 -17 -20 4 -4 16 -13 21 -37 21 l-32 0 7 -67 c11
-101 19 -113 76 -113 37 0 47 -3 43 -14 -3 -7 7 -55 21 -105 14 -51 23 -95 21
-100 -5 -8 15 -26 50 -48 10 -6 17 -17 16 -25 -6 -23 9 -118 19 -118 5 0 9 10
9 22 0 20 2 21 15 7 13 -13 14 -19 3 -40 -10 -19 -20 -24 -46 -22 -27 1 -35
-3 -43 -25 -8 -21 -12 -23 -19 -12 -5 8 -10 12 -12 10 -2 -3 -9 -16 -17 -30
-12 -22 -12 -23 0 -14 21 16 89 15 89 -2 0 -7 9 -18 19 -24 26 -14 31 -13 25
5 -8 21 111 15 133 -7 14 -15 10 -16 -50 -13 -63 3 -65 2 -54 -16 10 -16 24
-19 78 -19 50 0 70 -4 80 -17 12 -15 12 -16 -4 -10 -11 4 -24 4 -30 0 -7 -4
-32 -9 -56 -10 -35 -3 -47 1 -58 17 -17 24 -73 28 -73 5 0 -11 -7 -14 -22 -11
-75 15 -106 15 -112 1 -3 -8 -12 -12 -20 -9 -19 7 -29 -11 -12 -25 10 -9 15
-8 20 4 5 13 9 14 28 3 13 -7 42 -13 64 -13 46 -1 74 -18 74 -46 0 -14 7 -19
29 -19 15 0 40 -9 54 -20 16 -13 28 -16 32 -10 4 6 10 8 15 5 5 -3 28 1 52 9
72 23 105 26 117 12 13 -15 7 -19 -74 -42 -109 -32 -115 -33 -123 -17 -5 8
-28 17 -52 20 -30 4 -44 11 -48 25 -2 10 -18 24 -36 32 -43 19 -133 29 -141
16 -5 -8 -11 -8 -20 0 -9 8 -14 7 -18 -4 -7 -18 18 -42 27 -27 5 7 15 7 33 0
15 -6 38 -8 50 -4 27 6 100 -31 108 -56 4 -11 22 -19 54 -23 70 -9 78 -36 11
-36 -30 0 -52 5 -57 13 -21 35 -84 59 -158 62 -41 1 -75 -2 -75 -6 0 -19 6
-24 30 -26 102 -10 141 -21 179 -51 33 -27 48 -32 91 -32 28 0 49 4 46 9 -9
14 5 41 20 41 8 0 40 8 72 19 75 24 133 33 152 21 8 -5 11 -12 8 -16 -7 -6
-90 -31 -190 -56 -31 -8 -51 -20 -59 -35 -19 -35 -74 -31 -149 12 -34 19 -76
35 -93 36 -18 0 -41 4 -51 8 -11 4 -30 5 -43 3 -32 -6 -26 -36 7 -39 14 0 30
-2 35 -4 6 -1 15 -3 20 -4 67 -12 97 -22 138 -47 28 -16 62 -28 83 -28 26 0
37 -5 43 -22 5 -15 10 -18 15 -9 6 9 11 9 21 1 11 -9 28 -7 72 8 32 11 69 23
83 26 18 3 26 12 26 26 0 18 -5 20 -31 14 -16 -3 -50 -13 -75 -21 -25 -8 -59
-17 -77 -18 -29 -3 -31 -1 -24 18 5 12 17 22 27 22 19 0 52 9 89 24 62 25 167
51 207 51 31 0 54 7 72 21 20 16 26 17 26 6 0 -21 -18 -31 -75 -45 -27 -7 -55
-19 -61 -27 -6 -8 -24 -15 -39 -15 -28 0 -28 0 -21 -52 3 -29 6 -69 6 -88 1
-32 2 -33 15 -17 13 18 14 17 29 -12 9 -16 16 -36 16 -44 0 -17 -146 -67 -196
-67 -49 0 -134 29 -134 46 0 17 -1 17 46 -2 25 -11 51 -14 78 -10 50 9 55 12
49 36 -4 15 -9 17 -23 10 -30 -16 -83 -11 -110 10 -14 11 -40 20 -59 20 -18 0
-55 11 -81 24 -26 13 -63 27 -81 31 -19 4 -40 12 -46 17 -7 6 -19 8 -28 5 -8
-4 -17 -2 -20 4 -13 19 -20 0 -20 -53 0 -53 0 -53 30 -50 41 4 117 -31 165
-77 35 -34 39 -42 34 -72 -15 -92 -28 -138 -51 -178 l-25 -44 6 -221 c7 -232
19 -393 37 -511 8 -51 8 -86 0 -129 -6 -33 -8 -62 -4 -65 16 -12 33 -51 33
-75 0 -14 5 -28 10 -31 6 -3 10 -17 10 -30 0 -13 4 -26 8 -29 15 -9 -3 -117
-21 -127 -9 -5 -23 -16 -31 -24 -8 -8 -20 -15 -26 -15 -6 0 -13 -6 -16 -14 -3
-8 -12 -12 -20 -9 -15 5 -15 -14 0 -49 9 -21 4 -48 -9 -51 -5 -1 -11 23 -13
53 -2 30 -8 60 -13 65 -7 7 -8 4 -4 -7 4 -10 4 -26 0 -35 -4 -10 -9 -64 -11
-120 -3 -108 -16 -152 -38 -134 -9 7 -16 7 -24 -1 -9 -9 -12 -9 -12 0 0 18
-17 14 -24 -5 -3 -10 -9 -25 -13 -33 -5 -13 -4 -13 10 -1 15 12 17 11 17 -4 0
-14 3 -15 14 -6 10 9 15 8 19 -3 4 -9 2 -18 -3 -21 -6 -4 -10 -14 -10 -23 1
-16 2 -15 14 1 12 16 14 16 20 1 13 -33 2 -134 -15 -134 -4 0 -11 9 -14 20 -9
29 -21 25 -33 -12 -5 -19 -10 -25 -11 -15 -1 26 -22 16 -41 -19 -15 -30 -17
-34 -30 -92 -9 -38 -20 -54 -20 -29 0 10 -6 17 -12 17 -10 0 -10 2 -1 8 26 16
85 243 68 260 -3 3 -5 -2 -5 -11 0 -10 -4 -25 -9 -35 -5 -9 -12 -26 -16 -36
-3 -10 -7 -17 -10 -14 -7 7 23 98 45 133 11 18 20 47 20 65 0 24 4 31 14 27
11 -5 16 14 22 91 5 53 9 101 9 106 0 5 -7 11 -15 13 -11 3 -11 2 -3 -4 9 -6
4 -17 -17 -40 -18 -19 -31 -45 -33 -67 -5 -54 -21 -65 -52 -36 -14 13 -27 21
-30 18 -10 -9 47 -69 60 -64 14 5 14 -24 0 -107 -6 -37 -13 -51 -31 -59 -13
-6 -24 -15 -24 -19 0 -13 -33 -49 -44 -49 -5 0 -18 -8 -29 -18 -19 -17 -20
-16 -15 11 4 22 0 32 -17 43 -41 27 -49 64 -31 137 19 74 21 101 5 75 -5 -9
-14 -43 -20 -75 -6 -32 -19 -72 -30 -89 -26 -43 -26 -132 0 -165 10 -14 21
-36 23 -49 2 -19 9 -25 27 -24 21 1 22 -1 8 -11 -12 -9 -14 -14 -5 -23 16 -16
37 -15 70 2 25 13 29 13 42 -5 11 -16 11 -28 0 -77 -8 -31 -14 -65 -14 -74 0
-16 35 -35 54 -30 5 2 17 -5 28 -15 19 -17 21 -17 39 6 10 13 19 35 20 50 2
60 14 85 29 61 6 -8 7 -47 4 -86 -6 -65 -5 -73 16 -94 16 -16 29 -21 50 -16
20 3 30 1 34 -10 3 -8 16 -18 29 -23 20 -8 25 -20 35 -78 6 -37 11 -102 11
-144 -1 -42 4 -85 9 -96 6 -11 12 -31 14 -45 2 -14 10 -34 18 -44 12 -13 12
-18 3 -21 -7 -3 -13 -13 -13 -23 0 -10 -6 -21 -12 -23 -8 -3 -6 -6 4 -6 14 -1
17 -11 16 -51 0 -46 -17 -79 -26 -52 -2 7 -8 10 -12 7 -13 -8 0 -35 16 -35 8
0 14 5 14 10 0 6 4 10 9 10 11 0 11 -49 0 -56 -5 -3 -6 -10 -3 -16 5 -8 1 -9
-10 -5 -14 6 -17 2 -14 -16 2 -12 9 -21 16 -20 6 2 12 -4 12 -12 0 -8 -4 -15
-10 -15 -5 0 -10 -7 -10 -15 0 -26 19 -16 34 18 12 29 13 30 13 7 0 -14 3 -37
7 -52 6 -22 4 -29 -9 -34 -9 -4 -20 -2 -24 4 -4 6 -12 7 -20 3 -7 -5 -10 -14
-7 -20 4 -6 2 -11 -5 -11 -7 0 -9 -3 -6 -6 4 -4 13 -2 20 5 11 9 17 8 27 -4 9
-10 9 -15 1 -15 -6 0 -11 6 -11 13 0 6 -5 4 -11 -6 -6 -10 -8 -25 -5 -33 3 -8
-1 -14 -9 -14 -8 0 -15 -7 -15 -15 0 -11 -5 -12 -25 -5 -24 9 -31 1 -26 -32 0
-4 -6 -5 -14 -2 -11 4 -15 -1 -15 -16 0 -20 -24 -49 -41 -50 -12 0 -17 65 -6
78 7 9 6 11 -7 6 -18 -7 -23 -69 -6 -79 6 -4 8 -15 5 -26 -4 -12 -2 -19 7 -19
10 0 10 -2 -1 -9 -8 -5 -11 -16 -8 -24 6 -16 -18 -57 -35 -57 -6 0 -8 8 -6 18
3 10 -2 24 -10 31 -12 12 -15 12 -23 0 -14 -22 -10 -33 6 -19 13 11 15 8 15
-13 0 -25 -14 -42 -35 -42 -5 0 -11 -9 -14 -20 -2 -11 -7 -22 -11 -25 -4 -3
-10 -16 -14 -30 l-7 -25 19 24 20 24 7 -21 c3 -12 11 -19 17 -16 6 4 8 1 6 -7
-3 -8 -10 -13 -16 -12 -5 1 -12 -7 -15 -17 -4 -16 0 -20 18 -20 13 0 26 6 28
13 4 10 6 10 6 0 2 -21 111 -17 127 4 13 17 13 17 14 1 0 -17 52 -18 955 -18
l955 0 0 995 c0 547 -3 995 -7 995 -5 -1 -19 -7 -32 -14 -42 -23 -70 2 -33 30
15 12 15 13 1 14 -19 0 -31 -21 -36 -64 -2 -16 -4 -30 -6 -31 -1 -1 -25 -18
-53 -38 -59 -42 -91 -47 -102 -16 -8 21 -9 21 -25 -5 -9 -14 -17 -30 -17 -35
0 -5 -3 -12 -7 -14 -5 -3 -7 16 -6 41 1 26 0 39 -3 30 -7 -22 -20 -23 -32 -2
-14 25 -22 -104 -15 -238 4 -83 3 -118 -5 -118 -6 0 -14 5 -18 11 -3 6 -6 160
-5 342 2 321 7 376 31 337 5 -8 10 -10 10 -5 1 6 9 -10 18 -35 21 -54 41 -61
65 -21 22 38 22 55 -2 48 -12 -3 -27 3 -37 14 -9 10 -21 16 -26 13 -6 -4 -5 4
2 16 9 17 14 19 20 10 4 -7 13 -9 19 -5 9 5 9 10 1 20 -8 9 -7 14 4 18 9 4 18
-5 26 -24 13 -31 24 -36 36 -17 5 7 3 8 -5 4 -8 -5 -14 -1 -17 10 -6 24 -2 39
11 40 26 4 55 17 55 25 0 12 -14 11 -26 -1 -12 -12 -54 -1 -54 14 0 18 24 66
33 66 4 0 7 8 7 18 0 14 4 12 20 -8 19 -25 19 -25 34 -5 19 25 39 81 34 96 -3
8 -10 6 -20 -5 -32 -31 -45 -20 -45 39 0 42 3 53 12 45 13 -10 28 3 53 47 19
36 16 56 -9 50 -12 -3 -30 0 -40 6 -22 14 -26 29 -5 21 8 -3 17 -1 21 5 6 10
-8 16 -28 12 -5 -1 -6 2 -3 7 3 5 8 35 10 66 3 36 13 66 25 82 19 24 19 45 -1
71 -5 7 -5 14 1 17 5 4 12 2 16 -4 10 -17 19 -12 44 25 17 25 22 43 18 64 -4
21 -2 31 9 35 24 9 26 8 19 -14 -3 -11 -2 -20 3 -20 13 0 22 152 22 388 0 111
2 213 6 226 3 13 -4 63 -15 112 -11 49 -28 124 -38 167 -17 74 -19 78 -41 72
-32 -8 -90 12 -102 35 -22 42 -6 166 28 218 l16 25 12 -34 c15 -42 17 -69 5
-69 -5 0 -13 12 -19 28 l-9 27 -12 -38 c-15 -44 -22 -105 -15 -130 3 -9 19
-24 35 -33 29 -15 30 -15 23 10 -4 18 -1 27 15 35 19 11 20 17 14 86 -4 51 -2
75 5 75 12 0 14 -7 32 -90 7 -30 21 -85 31 -121 10 -37 25 -109 34 -160 8 -52
19 -119 23 -149 6 -35 10 255 11 780 l1 835 -84 -86 c-45 -47 -91 -91 -101
-96 -34 -20 -6 -35 58 -31 73 4 85 -12 27 -36 -30 -12 -58 -15 -108 -10 -60 5
-72 3 -114 -21 -27 -15 -48 -30 -48 -35 0 -18 62 -29 160 -26 58 1 116 6 129
10 23 8 24 7 17 -25 -7 -36 -65 -128 -106 -169 -43 -42 -128 -110 -139 -110
-5 0 -17 7 -25 16 -28 27 -146 84 -177 84 -16 0 -29 3 -29 8 1 4 11 45 24 92
20 73 26 85 44 84 12 -1 21 1 20 5 -1 3 4 19 10 34 10 23 52 212 52 232 0 3
-11 16 -24 28 -23 22 -24 26 -16 92 5 39 9 98 10 132 0 63 18 100 45 89 12 -4
12 1 5 34 0 3 -5 -3 -11 -12 -5 -10 -18 -18 -27 -18 -16 1 -16 1 1 11 22 13
22 25 -2 58 -13 18 -22 53 -27 111 -4 47 -12 88 -18 93 -8 5 -6 11 5 20 27 20
25 137 -1 137 -5 0 -6 10 -3 23 4 18 3 19 -6 7 -10 -12 -11 -11 -10 10 4 48 0
57 -23 54 -13 -1 -26 -3 -30 -3 -5 -1 -8 -10 -8 -21 0 -23 -8 -25 -31 -7 -13
10 -13 15 -1 37 l13 25 -4 -27 c-2 -16 0 -28 4 -28 5 0 9 7 9 15 0 8 7 15 15
15 8 0 15 6 15 13 0 9 2 9 9 -1 6 -11 10 -10 15 4 4 11 -3 27 -21 47 -49 51
-113 74 -153 54z m-160 -357 c8 12 10 11 10 -7 0 -12 -6 -24 -12 -27 -7 -3 -2
-3 12 0 14 3 31 13 38 22 6 9 12 12 12 8 0 -5 7 -3 15 4 12 10 15 9 15 -8 0
-15 5 -19 19 -15 33 8 78 -23 83 -57 3 -17 1 -33 -2 -35 -4 -3 -10 -33 -12
-67 -3 -35 -10 -64 -16 -66 -16 -5 -16 -114 -1 -129 9 -9 3 -19 -22 -40 -78
-65 -78 -66 -81 -115 -2 -62 5 -68 28 -22 11 21 32 47 47 58 24 18 29 19 37 6
7 -11 4 -16 -12 -18 -17 -3 -18 -6 -7 -14 10 -7 8 -8 -9 -3 -19 5 -25 1 -37
-29 -8 -19 -15 -43 -14 -53 0 -12 4 -8 11 10 5 15 14 27 19 27 6 0 8 -4 4 -10
-3 -5 -3 -20 1 -34 5 -21 10 -24 41 -20 21 3 53 19 78 39 23 19 45 35 49 35
12 0 6 -85 -9 -114 -8 -15 -15 -38 -15 -50 0 -11 -9 -61 -19 -111 -11 -49 -25
-115 -31 -145 -14 -72 -64 -160 -90 -160 -11 0 -20 -4 -20 -8 0 -5 -20 -23
-45 -41 -57 -41 -72 -38 -149 32 -45 40 -64 66 -76 102 -9 27 -22 51 -30 53
-9 3 -11 -1 -7 -12 13 -34 -11 -14 -28 24 -15 34 -17 56 -12 154 4 63 3 117
-2 120 -15 10 1 158 21 193 11 18 21 33 23 33 1 0 -1 -19 -5 -42 -5 -24 -10
-65 -12 -93 l-3 -50 56 -1 c31 -1 61 1 66 5 22 14 33 50 23 75 -8 22 -16 26
-50 26 -34 0 -41 3 -38 18 5 22 43 18 81 -9 35 -25 41 -21 29 22 -7 29 -16 37
-63 56 l-54 22 0 52 c0 62 -20 78 -31 25 -3 -20 -10 -39 -15 -42 -9 -5 -13 31
-12 109 0 40 -12 39 -21 -3 -3 -14 -3 6 0 43 5 66 48 182 65 172 9 -6 69 52
61 59 -3 3 0 6 7 6 6 0 16 11 21 25 6 16 14 23 25 19 10 -4 15 0 15 11 0 14 4
13 20 -6 17 -21 21 -22 30 -9z m-948 -617 c2 -22 11 -30 38 -38 19 -6 45 -16
57 -23 41 -23 79 -15 102 22 44 71 71 54 81 -50 5 -44 11 -91 15 -106 9 -36
-18 -67 -45 -50 -22 13 -30 6 -30 -24 0 -15 5 -22 13 -19 16 6 53 -25 61 -52
5 -16 2 -25 -12 -32 -11 -6 -22 -8 -24 -5 -3 3 -18 -9 -34 -26 -16 -16 -34
-30 -41 -30 -15 0 -48 -48 -40 -57 4 -3 12 -1 19 5 7 5 30 13 50 17 l37 7 -9
-33 c-6 -19 -10 -35 -10 -35 0 -1 9 0 20 3 11 3 20 9 20 14 0 5 3 9 8 9 12 0
12 -94 -1 -110 -13 -16 -73 -40 -100 -40 -8 0 -28 18 -44 40 -18 26 -40 43
-62 49 -53 16 -81 62 -105 181 -21 100 -38 283 -30 316 l7 27 12 -29 c12 -28
12 -27 19 34 8 64 22 82 28 35z m573 -158 c23 -99 23 -101 8 -149 -9 -27 -10
-50 -4 -75 5 -20 9 -69 8 -108 -1 -44 3 -77 11 -85 8 -8 8 -15 1 -24 -6 -7 -6
-15 -1 -18 11 -7 4 -144 -8 -165 -5 -9 -8 38 -9 112 0 70 -3 132 -6 137 -3 5
-16 15 -28 21 -21 12 -21 11 -4 -8 19 -22 23 -48 6 -37 -9 5 -10 -2 -6 -22 7
-30 6 -29 -35 62 -6 14 -6 47 1 95 6 41 13 135 17 209 9 184 17 193 49 55z
m-161 -21 c3 -9 3 -21 -1 -27 -4 -7 -6 -42 -4 -78 2 -57 -2 -76 -26 -125 l-28
-58 -7 48 c-3 26 -12 54 -18 62 -9 10 -10 25 -2 54 5 22 8 49 5 60 -6 22 14
53 28 44 5 -3 9 -2 8 3 -6 34 33 49 45 17z m747 -528 c-17 -24 -43 -55 -59
-68 -44 -37 -177 -98 -213 -98 -25 0 -104 53 -113 75 -11 29 -6 55 9 55 8 0
15 5 15 11 0 5 -4 7 -10 4 -5 -3 -10 -1 -10 5 0 8 7 9 18 5 72 -31 71 -31 88
-6 14 19 23 22 53 17 20 -3 43 -6 51 -8 23 -4 180 34 180 44 0 4 5 8 10 8 6 0
-3 -20 -19 -44z m-737 -655 c11 -35 14 -67 9 -117 -3 -38 -8 -63 -11 -56 -2 6
-8 10 -13 6 -12 -7 -12 -91 1 -99 6 -3 10 2 10 11 0 10 3 14 7 11 3 -4 12 1
20 11 14 16 14 16 8 -3 -10 -32 -13 -95 -4 -95 11 0 -1 -31 -18 -48 -18 -18
-17 -53 1 -46 19 7 28 -39 22 -107 -12 -123 -7 -240 19 -424 16 -112 16 -124
5 -146 -7 -13 -21 -30 -32 -37 -10 -7 -18 -20 -18 -28 0 -8 -4 -13 -9 -10 -4
3 -11 34 -15 68 -11 88 -11 98 -3 138 7 30 6 32 -4 15 -7 -11 -25 -33 -40 -50
-31 -33 -30 -48 1 -20 11 10 20 14 20 8 0 -16 -43 -51 -72 -58 -16 -4 -28 -11
-28 -16 0 -5 -11 -9 -24 -9 -13 0 -43 -7 -66 -15 -24 -8 -87 -18 -141 -22 -88
-5 -99 -4 -99 10 0 14 12 17 79 17 51 0 102 7 145 20 36 12 66 23 66 25 0 2 3
10 6 19 5 14 1 14 -27 5 -19 -6 -43 -15 -54 -20 -11 -5 -65 -8 -120 -7 -84 3
-100 6 -103 20 -3 15 8 17 100 15 123 -2 245 28 256 63 4 10 -2 11 -24 5 -165
-44 -324 -45 -332 -1 -3 15 0 17 20 10 32 -11 200 -8 240 4 18 6 50 13 71 17
29 5 37 10 37 27 0 15 -4 18 -17 13 -46 -19 -184 -36 -248 -32 -78 6 -105 14
-105 31 0 8 40 11 132 12 167 0 241 12 246 38 3 15 0 18 -20 13 -145 -35 -358
-28 -358 12 0 16 6 16 88 4 67 -11 102 -11 152 -3 36 6 78 12 95 14 28 3 56
29 43 41 -3 4 -15 2 -26 -4 -28 -15 -264 -14 -313 1 -50 14 -55 43 -6 34 17
-4 93 -9 167 -12 142 -5 181 3 188 39 3 15 0 15 -39 2 -70 -25 -179 -19 -311
16 -46 12 -56 45 -10 35 15 -3 52 -9 82 -12 30 -3 73 -12 95 -20 35 -13 45
-13 84 1 24 8 51 15 60 15 26 0 42 15 36 32 -5 13 -12 14 -38 7 -64 -20 -157
-29 -178 -19 -35 19 -20 27 64 33 89 7 147 24 147 44 0 17 -24 16 -83 -2 -72
-22 -217 -14 -259 15 l-33 21 92 -6 c50 -4 115 -4 143 0 43 6 49 9 38 22 -9
11 -26 13 -77 9 -89 -8 -194 12 -199 38 -3 16 0 18 25 12 15 -4 68 -10 116
-13 83 -5 89 -4 85 13 -3 16 -16 20 -96 26 -107 7 -122 11 -122 34 0 12 6 15
23 10 32 -9 157 -20 157 -13 0 27 -16 37 -60 37 -56 0 -112 18 -107 34 2 7 28
10 77 7 59 -3 71 -1 65 10 -6 11 -5 12 6 2 7 -7 27 -13 45 -13 26 0 31 4 28
18 -4 14 -18 17 -87 18 -98 1 -137 9 -137 29 0 11 18 13 101 9 121 -6 143 -1
129 27 -12 22 -80 28 -80 7 0 -9 -3 -9 -12 0 -7 7 -38 12 -71 12 -50 0 -58 2
-55 18 3 15 16 17 93 18 50 0 95 -3 100 -7 42 -28 155 -4 155 33 0 14 -5 18
-16 14 -9 -3 -20 -6 -25 -6 -5 0 -9 -7 -9 -15 0 -13 -9 -15 -52 -10 -66 8
-111 12 -163 14 -51 2 -75 15 -58 32 10 10 24 9 66 -4 71 -23 95 -22 183 8 99
33 113 43 125 90 17 68 20 75 29 75 4 0 15 -22 24 -49z m653 1 c121 -62 167
-129 168 -242 0 -72 -2 -78 -40 -132 -31 -44 -57 -67 -113 -99 -83 -47 -149
-62 -232 -53 -68 8 -115 31 -170 84 -23 22 -46 40 -51 40 -5 0 -11 12 -15 28
-4 15 -14 38 -23 52 -22 34 -21 172 2 216 15 30 82 85 137 114 41 22 90 29
185 26 79 -2 98 -6 152 -34z m493 -412 c13 -23 5 -124 -16 -225 -16 -74 -31
-193 -39 -310 -3 -38 -7 -76 -10 -84 -3 -8 -8 -30 -11 -50 -3 -20 -10 -42 -16
-48 -9 -11 -26 -209 -28 -310 0 -23 -5 -33 -15 -33 -18 0 -18 0 -4 -54 9 -38
8 -50 -13 -94 -23 -52 -46 -73 -28 -27 7 18 6 25 -2 25 -6 0 -8 3 -5 7 4 3 0
17 -9 31 -11 17 -13 31 -7 46 5 11 8 33 7 48 -2 21 1 26 13 21 13 -5 14 0 8
28 -4 19 -17 52 -28 75 l-19 41 24 49 c13 27 33 54 44 59 15 8 18 16 13 35
-10 36 2 254 14 262 7 4 7 11 0 20 -11 13 -19 195 -14 338 2 62 6 81 28 113
15 21 33 42 42 47 27 16 60 11 71 -10z m-1012 -280 c0 -80 4 -170 7 -201 4
-37 3 -59 -4 -63 -14 -9 -34 42 -28 72 2 12 0 41 -5 65 -4 23 -8 85 -8 137 1
52 1 120 1 150 l-1 55 18 -35 c15 -29 19 -61 20 -180z m-699 -1369 c-4 -25
-11 -62 -15 -81 -12 -60 14 -21 30 45 l14 60 0 -80 c-1 -119 -11 -208 -25
-213 -10 -3 -13 13 -13 55 0 41 -3 54 -10 43 -5 -8 -10 -35 -10 -60 -1 -47
-20 -134 -33 -146 -18 -19 1 289 25 392 10 44 14 50 28 41 14 -8 15 -18 9 -56z
m1051 -911 c28 -30 42 -69 37 -102 -5 -30 -17 -33 -17 -5 0 29 -9 34 -28 15
-19 -19 -27 0 -15 32 9 25 9 30 -3 30 -10 0 -14 -14 -14 -55 0 -30 5 -55 10
-55 6 0 10 -7 10 -15 0 -14 11 -19 38 -16 6 1 13 -10 14 -24 0 -14 1 -31 2
-37 1 -7 7 -17 14 -21 6 -4 12 -13 12 -18 0 -6 -7 -3 -16 5 -8 9 -24 16 -35
16 -20 0 -23 8 -19 49 1 18 -2 22 -13 18 -9 -3 -18 1 -21 9 -3 9 -10 13 -15
10 -5 -3 -12 1 -15 10 -3 8 -2 12 4 9 15 -9 21 16 11 50 l-8 30 -13 -30 c-13
-30 -14 -66 -3 -119 5 -28 4 -29 -11 -14 -9 9 -13 23 -10 31 3 8 -2 21 -10 30
-9 9 -16 18 -16 21 0 2 16 39 35 80 19 42 35 81 35 86 0 20 33 9 60 -20z
m-918 -542 c4 -40 18 -69 28 -63 10 6 35 -23 26 -32 -3 -3 -6 -1 -6 5 0 6 -6
9 -14 6 -10 -4 -14 -16 -10 -40 4 -37 -12 -48 -19 -11 -3 21 -4 21 -11 2 -22
-59 -19 -56 -46 -34 -16 13 -19 19 -8 15 10 -3 24 1 32 9 13 13 11 19 -16 45
-16 16 -31 30 -32 30 -1 0 -1 -16 0 -35 2 -25 0 -33 -10 -29 -14 5 -66 -82
-66 -111 0 -27 -18 -16 -22 15 -3 17 -1 30 4 30 13 0 9 17 -6 23 -10 4 -12 -3
-10 -26 5 -43 -11 -15 -20 36 -6 33 -5 37 13 37 11 0 23 5 26 10 11 18 25 11
22 -11 -1 -12 3 -24 9 -26 17 -6 25 25 12 46 -17 28 9 50 64 54 10 1 18 5 18
10 0 4 -7 7 -16 5 -10 -2 -19 3 -21 10 -3 7 1 10 11 6 9 -3 16 -1 16 5 0 6 9
11 21 11 11 0 17 5 14 10 -3 6 -1 10 4 10 6 0 12 -6 13 -12z"/>
<path d="M1466 3870 c-3 -19 -7 -51 -8 -70 -4 -45 -33 -51 -72 -15 -23 21 -27
33 -24 60 2 19 2 35 0 35 -18 0 -107 -80 -118 -106 -16 -39 -19 -140 -4 -149
6 -3 10 -14 10 -24 0 -10 18 -36 40 -59 l40 -40 0 38 c0 50 22 69 45 38 15
-21 17 -22 26 -5 15 26 44 5 64 -48 l17 -44 22 42 c16 32 28 43 49 45 19 2 27
-1 27 -12 0 -20 14 -20 30 -1 15 18 54 20 67 3 5 -7 8 -28 6 -45 -1 -18 1 -33
5 -33 20 0 86 68 108 113 22 42 25 58 20 100 -11 80 -50 134 -123 171 -46 23
-52 20 -46 -17 9 -60 -62 -114 -97 -72 -6 8 -13 37 -13 65 -2 39 -4 47 -13 35
-16 -22 -33 -19 -43 8 -8 20 -9 19 -15 -13z"/>
<path d="M2151 6262 c-39 -4 -82 -29 -80 -46 4 -20 -12 -45 -26 -40 -12 5 -45
-61 -45 -92 0 -17 59 -46 75 -36 5 3 22 5 36 4 17 -2 29 3 32 12 8 21 34 20
45 0 12 -22 3 -54 -14 -54 -12 0 -11 -5 2 -25 11 -17 12 -25 4 -25 -6 0 -10
-10 -8 -22 2 -16 12 -24 33 -28 35 -8 91 -35 100 -50 11 -17 -4 -46 -30 -58
-22 -10 -26 -9 -40 18 -11 21 -23 30 -40 30 -14 0 -25 -4 -25 -10 0 -5 -10
-10 -22 -11 l-23 0 21 -9 c12 -5 25 -13 28 -19 4 -6 1 -9 -6 -6 -8 3 -14 -2
-15 -14 -1 -14 5 -18 23 -17 28 1 39 23 23 43 -7 7 -9 16 -6 19 3 3 13 -9 22
-26 9 -18 12 -29 6 -26 -6 4 -11 2 -11 -3 0 -15 23 -14 40 2 12 10 12 9 1 -5
-11 -14 -9 -19 8 -30 12 -7 21 -17 21 -22 0 -5 -10 0 -22 11 -24 21 -88 39
-88 24 0 -17 -49 14 -60 37 -5 13 -15 20 -21 16 -8 -5 -8 -9 1 -14 7 -4 10
-13 6 -19 -10 -15 22 -73 36 -65 7 4 8 3 4 -4 -8 -13 24 -53 36 -46 4 3 8 1 8
-4 0 -34 125 -30 163 6 31 29 35 28 40 -10 2 -18 5 44 5 137 2 160 1 171 -18
183 -16 10 -20 23 -20 67 0 141 -85 238 -199 227z"/>
<path d="M203 5676 c5 -12 -1 -13 -29 -9 -36 6 -40 3 -24 -25 5 -9 15 -28 20
-42 6 -14 19 -40 30 -57 11 -18 17 -40 14 -48 -8 -19 13 -45 36 -45 10 0 21 8
25 18 6 15 8 15 18 2 7 -9 22 -16 35 -17 16 -1 22 4 22 20 0 18 2 19 10 7 7
-11 10 -12 10 -2 0 8 -9 16 -20 19 -20 5 -29 43 -9 43 5 0 7 5 4 10 -4 6 -11
8 -16 5 -5 -4 -9 3 -9 15 0 12 -4 18 -10 15 -5 -3 -10 -1 -10 5 0 6 -4 8 -10
5 -6 -3 -10 -1 -10 4 0 6 4 11 10 11 6 0 5 10 -2 25 -6 13 -15 22 -19 19 -4
-2 -13 5 -19 16 -12 23 -55 29 -47 6z"/>
<path d="M189 5185 c-15 -8 -41 -17 -59 -20 -45 -8 -85 -30 -109 -61 -28 -35
-27 -52 2 -28 l22 19 -21 -25 c-13 -17 -21 -42 -23 -77 -1 -29 0 -53 2 -53 3
0 18 7 33 15 16 8 42 15 58 15 17 0 56 5 87 12 52 10 58 14 61 40 5 31 -11
159 -21 170 -3 3 -18 0 -32 -7z"/>
<path d="M67 4936 l-67 -9 0 -44 c0 -38 3 -43 23 -44 l22 0 -22 -11 c-22 -11
-23 -15 -23 -176 l0 -165 47 7 c27 4 71 9 98 12 28 3 59 9 70 14 11 5 31 10
45 12 17 2 25 9 26 23 0 11 10 42 22 69 33 73 38 119 17 173 -17 44 -17 47 0
59 10 8 15 17 12 21 -4 4 -12 2 -18 -4 -21 -21 -100 39 -91 70 3 9 -67 6 -161
-7z"/>
<path d="M306 4077 c6 -16 35 -27 75 -27 14 0 29 -4 35 -9 5 -5 26 -11 47 -14
21 -3 48 -14 60 -25 25 -22 85 -44 99 -36 5 3 27 -4 49 -15 38 -20 76 -21 104
-1 6 3 29 12 53 19 31 9 42 17 42 31 0 11 -2 20 -4 20 -3 0 -41 -11 -86 -26
l-80 -25 -29 21 c-17 11 -36 17 -46 14 -9 -4 -26 -2 -38 4 -105 49 -136 62
-150 62 -9 0 -18 3 -20 8 -3 4 -30 8 -61 10 -46 3 -55 0 -50 -11z"/>
<path d="M302 2800 c-6 -11 -12 -30 -12 -43 0 -13 -5 -28 -10 -33 -15 -15 -1
-76 16 -70 11 4 11 1 -1 -18 -17 -25 -9 -42 12 -25 10 9 13 3 13 -30 0 -47 37
-98 78 -106 19 -3 22 1 22 25 0 20 -14 44 -48 82 -27 29 -52 67 -56 83 -4 17
-9 38 -12 48 -3 9 -1 17 4 17 5 0 12 -12 15 -27 6 -26 78 -124 97 -131 19 -7
-6 44 -32 66 -16 14 -40 46 -53 73 -20 39 -23 53 -15 74 12 32 12 35 2 35 -4
0 -13 -9 -20 -20z"/>
</g>
</svg>
